PathFileType	4	(X/Y/Z)	C:/Users/beibeiliu/ov580/test_trc/User3\sequence.8_training_dense_right.trc
DataRate	CameraRate	NumFrames	NumMarkers	Units	OrigDataRate	OrigDataStartFrame	OrigNumFrames
120	120	24	19	mm	120	81	161
Frame#	Time	ThumbCMC			ThumbMCP			ThumbIP			ThumbTip			IndexMCP			IndexPIP			IndexTip			MiddleMCP			MiddlePIP			MiddleTip			RingMCP			RingPIP			RingTip			PinkyMCP			PinkyPIP			PinkyTip			BackHand1			BackHand2			BackHand3	
		X0	Y0	Z0	X1	Y1	Z1	X2	Y2	Z2	X3	Y3	Z3	X4	Y4	Z4	X5	Y5	Z5	X6	Y6	Z6	X7	Y7	Z7	X8	Y8	Z8	X9	Y9	Z9	X10	Y10	Z10	X11	Y11	Z11	X12	Y12	Z12	X13	Y13	Z13	X14	Y14	Z14	X15	Y15	Z15	X16	Y16	Z16	X17	Y17	Z17	X18	Y18	Z18	
80	0.666667	82.7669	-10.4476	4.36504	65.7348	-1.03913	-21.9012	52.4197	7.23101	-43.51	44.5414	9.36585	-68.2858	124.638	23.3325	-50.1419	121.453	39.9113	-78.5432	105.418	26.1463	-102.734	146.124	11.2321	-53.5621	153.963	19.7656	-84.5523	131.397	2.11607	-111.196	153.852	-9.43361	-50.4775	160.114	-3.57139	-80.9498	139.315	-21.0312	-102.09	158.474	-36.1611	-48.497	163.751	-41.0965	-76.9256	141.883	-54.1124	-94.1465	144.018	-22.1812	-9.28333	141.517	-31.5328	15.9904	118.59	-6.20547	4.50226	
81	0.675	76.875	-9.46653	5.04952	60.1091	-1.92274	-19.0408	45.4128	8.73133	-40.6908	42.9154	7.40915	-65.5774	113.831	27.1455	-48.7912	111.767	41.6878	-77.7623	94.5946	27.2765	-102.545	141.597	14.6017	-54.3444	143.921	21.2248	-87.1732	121.651	4.17945	-111.099	149.079	-6.15453	-51.9244	151.301	-0.332676	-83.767	132.783	-22.0676	-101.963	153.17	-33.7269	-49.8283	157.425	-38.7827	-76.4636	137.856	-49.4119	-94.5774	138.23	-21.9151	-7.88099	139.362	-31.6946	17.8755	116.68	-5.7667	4.44743	
82	0.683333	71.6253	-9.23025	5.81238	56.9921	-3.46887	-17.9187	44.2348	6.33018	-41.9062	38.135	6.41779	-65.656	112.763	22.6954	-50.6733	109.376	37.6635	-76.9272	94.3626	24.5016	-99.6355	134.086	11.0219	-52.6507	137.765	22.7528	-81.9954	116.29	-1.21463	-111.747	143.986	-7.7035	-52.3209	145.242	-4.05289	-83.5641	128.216	-21.7384	-100.161	146.491	-36.8875	-46.3227	152.459	-41.2913	-75.1038	133.474	-50.6481	-92.5547	137.009	-23.3602	-11.7723	135.175	-30.181	16.2201	111.673	-5.89775	2.98706	
83	0.691667	71.882	-15.3627	8.05526	52.4596	-6.26493	-17.2732	39.3083	2.20774	-38.2858	32.9118	2.92559	-64.0926	108.468	16.8629	-48.3348	102.956	34.3462	-78.9529	84.2777	19.8021	-100.889	131.965	5.30793	-51.6574	135.431	15.94	-82.9136	114.277	-2.97683	-110.037	137.096	-12.9049	-49.6973	144.755	-8.9651	-79.3393	120.908	-24.6982	-100.612	144.47	-39.2662	-49.0711	145.76	-42.3865	-76.2111	128.344	-53.6744	-91.5911	135.265	-28.1443	-9.3864	133.094	-38.136	20.1107	110.507	-8.46218	5.49369	
84	0.7	68.2861	-17.1595	7.86681	52.305	-10.3895	-17.6564	34.5069	0.276007	-40.542	30.1541	-2.44966	-62.6007	100.518	19.5597	-48.2926	99.4405	30.6301	-79.4219	81.3549	16.6384	-101.413	124.679	4.59506	-52.4872	130.071	14.6324	-87.2754	111.338	-7.81069	-112.319	134.619	-10.7403	-52.0658	142.646	-12.187	-81.8263	118.076	-25.0323	-99.983	139.39	-42.9831	-44.8973	146.514	-46.244	-74.0001	125.105	-54.2111	-90.5369	128.133	-24.8208	-11.5301	129.866	-35.9619	16.9218	107.04	-11.0729	3.4513	
85	0.708333	65.6712	-17.3089	6.13452	47.1247	-11.327	-16.2884	33.6784	-3.67523	-40.8024	23.5605	-3.0229	-62.6597	96.2606	16.3146	-48.5846	93.9711	32.4797	-78.3391	76.6016	16.9225	-102.609	121.34	9.73073	-55.3074	127.45	15.8703	-84.3296	105.726	-6.06237	-113.653	134.673	-12.8995	-53.5842	136.546	-7.17889	-81.3974	117.112	-28.7823	-101.509	138.734	-39.929	-49.453	143.725	-44.0123	-74.5472	120.052	-54.5801	-91.7127	124.86	-25.6718	-9.05381	125.754	-37.0993	19.2605	103.616	-12.0251	7.47556	
86	0.716667	63.786	-16.8531	6.21517	44.5608	-12.1759	-14.2078	29.5082	-1.54934	-40.2972	21.8256	-3.77084	-61.9727	96.4818	18.2564	-50.4499	93.6923	30.8168	-76.9254	77.2776	13.5978	-104.635	122.016	6.68776	-53.9768	126.069	15.4342	-87.182	103.88	-6.23209	-113.155	134.289	-11.4546	-54.8173	133.816	-7.47096	-84.6893	111.816	-25.9134	-101.476	137.193	-40.1293	-49.1121	141.581	-41.5779	-76.4952	123.778	-54.0039	-93.3238	125.235	-26.4454	-11.8462	128.106	-34.6688	18.2682	103.106	-9.11611	4.20717	
87	0.725	65.0851	-20.6066	8.56168	47.3311	-12.643	-18.2808	29.8367	-3.85214	-40.9635	24.9824	-5.59207	-66.4813	98.5487	14.8074	-51.0086	94.4985	28.7412	-77.8633	75.906	17.0365	-102.194	122.408	7.04458	-55.8657	123.755	15.4096	-86.2295	108.575	-6.74123	-112.863	133.089	-12.3054	-53.8594	136.667	-11.2827	-84.5531	115.587	-27.9796	-101.541	140.178	-42.9943	-49.0933	142.411	-44.0653	-75.5633	123.33	-60.0364	-93.1055	128.447	-28.4649	-9.41276	126.868	-37.0271	15.7194	102.677	-13.4532	6.54705	
88	0.733333	65.3058	-22.7138	9.35243	45.2487	-14.6802	-15.7881	33.0117	-7.89837	-39.3431	28.5823	-9.79497	-65.3868	99.1685	11.4574	-50.9508	96.0782	26.4178	-82.1304	76.2977	12.152	-103.886	125.768	2.89206	-56.0443	127.607	12.2931	-85.5749	107.264	-7.71101	-114.412	131.582	-12.3643	-55.3605	135.007	-12.0286	-86.2175	115.284	-34.7816	-102.671	138.289	-42.3978	-48.1061	143.88	-46.8538	-77.2487	122.184	-61.0662	-94.2157	125.831	-28.2154	-13.5988	126.398	-35.9707	14.6543	102.627	-12.5222	4.91878	
89	0.741667	66.533	-21.6543	4.49714	47.4619	-17.4361	-16.3872	31.4432	-7.66133	-40.6393	27.3853	-11.5329	-62.6791	97.5821	11.2366	-50.821	93.2933	27.4414	-77.3922	80.5277	10.5657	-105.744	123.783	0.740601	-55.2357	125.397	12.1229	-88.0859	105.514	-9.79099	-114.081	132.556	-13.8646	-55.1376	137.911	-14.3923	-83.5145	116.228	-31.1913	-102.367	141.262	-45.0557	-48.8521	144.536	-45.2214	-74.5122	127.939	-60.3237	-93.5136	128.586	-31.8266	-10.1492	129.156	-39.6821	14.8658	102.506	-11.0549	3.1002	
90	0.75	65.2311	-22.302	7.33369	46.8605	-15.3973	-17.9041	31.9866	-6.52102	-42.4292	24.7779	-9.55521	-65.5088	96.4568	13.8623	-50.3599	96.5717	24.8028	-78.8128	79.6835	12.5082	-102.889	123.744	-0.27643	-53.8962	125.514	11.4574	-86.9993	109.444	-8.63714	-113.477	134.659	-18.0683	-53.0557	136.473	-15.3622	-86.6263	116.481	-35.6905	-102.354	139.686	-45.2504	-47.9184	146.3	-49.8196	-75.4382	128.458	-60.6771	-91.3943	127.31	-29.003	-12.8785	125.644	-38.3314	19.7097	102.284	-10.6851	4.1017	
91	0.758333	68.8857	-25.5126	6.62372	47.5819	-16.7118	-17.7814	33.909	-13.3402	-37.8796	24.4281	-11.6806	-62.4915	99.3729	8.87835	-51.2957	93.2355	23.199	-81.833	79.0549	7.53049	-103.461	123.91	-0.928674	-55.4216	125.962	7.95189	-90.374	108.548	-13.493	-114.191	134.357	-17.5796	-53.9477	139.149	-18.796	-86.9768	118.649	-34.9951	-101.995	142.919	-49.1464	-46.8546	145.482	-51.1809	-76.2553	129.115	-63.5344	-91.2946	129.658	-30.9966	-12.6601	129.327	-40.7229	18.37	102.44	-15.2799	6.46369	
92	0.766667	67.9548	-26.6941	5.57337	51.7099	-23.5412	-17.299	32.9141	-15.0329	-37.8406	28.8606	-16.9567	-62.3678	97.1957	6.61805	-50.8716	93.3928	20.261	-82.1288	80.5373	2.70775	-103.919	124.285	-3.6735	-54.6661	125.166	5.42582	-88.5425	113.328	-17.471	-112.681	133.641	-20.8962	-53.4327	140.965	-19.6193	-82.0498	118.521	-43.3073	-102.037	144.675	-49.5887	-48.6617	147.385	-51.7732	-72.0969	127.765	-66.7177	-91.7282	130.579	-34.9017	-10.5727	131.039	-44.4119	20.1015	102.997	-19.5953	5.83239	
93	0.775	69.086	-29.1069	7.34819	49.0082	-24.8198	-14.5695	34.6198	-15.2129	-40.734	24.5758	-16.3111	-61.9783	98.7893	2.58951	-49.9783	94.2767	17.7472	-79.0505	82.3146	-1.9233	-104.162	122.558	-6.89662	-52.4747	129.4	-0.812843	-89.2211	110.174	-21.693	-113.079	135.357	-24.7177	-53.0878	140.377	-23.4294	-80.8926	121.444	-40.0787	-100.464	142.594	-53.2795	-46.4827	148.543	-57.3469	-72.1804	128.379	-71.2081	-89.7721	132.68	-38.6275	-11.0814	126.916	-45.503	22.1769	105.297	-18.7625	4.41782	
94	0.783333	69.4282	-32.4164	10.8774	49.7943	-26.5268	-11.8426	33.5718	-15.9649	-38.7371	28.4698	-18.8671	-64.295	102.045	0.270226	-51.4658	97.4693	13.8449	-82.146	80.0372	0.25468	-102.856	125.404	-8.3021	-53.3361	129.084	-2.04373	-88.195	111.136	-24.2188	-113.093	137.626	-26.5795	-51.6017	142.095	-26.5518	-80.4225	124.089	-45.253	-100.662	139.242	-54.4325	-44.0303	146.605	-56.7169	-71.2373	126.974	-72.875	-90.8503	131.606	-41.0886	-9.89593	130.438	-47.028	17.3542	104.248	-19.9308	9.31219	
95	0.791667	68.7039	-28.8997	9.12962	50.1482	-23.8731	-12.3499	34.9343	-14.642	-40.3682	32.4661	-18.9408	-61.9365	100.617	1.38944	-48.7124	99.3128	14.3823	-81.0562	82.4241	0.864316	-102.357	128.309	-11.2413	-52.3673	130.818	-0.279934	-86.5697	114.958	-22.5633	-112.349	136.229	-26.4273	-49.9664	141.971	-24.2258	-80.3895	123.784	-43.7237	-100.56	142.092	-52.9924	-45.1107	147.622	-58.6729	-73.0667	130.286	-72.2448	-88.4866	131.993	-37.4183	-8.23014	132.04	-45.2699	19.0964	108.571	-20.8892	4.83686	
96	0.8	70.2714	-25.5389	8.4591	56.1338	-23.1948	-17.1071	39.3441	-15.458	-37.6641	33.317	-17.2201	-63.1343	102.381	4.60232	-49.3776	99.3183	18.2978	-77.9331	88.7239	2.05919	-103.401	129.241	-4.22072	-56.2426	134.68	-0.949909	-87.772	115.699	-18.5547	-112.433	139.967	-27.7215	-50.7912	143.006	-25.5213	-84.6555	120.941	-41.1362	-101.518	146.946	-55.5662	-43.4603	147.702	-55.5215	-73.3779	134.741	-71.2193	-90.0357	132.104	-36.5529	-7.37751	131.703	-41.7299	18.4217	108.561	-18.9648	8.74748	
97	0.808333	70.7304	-25.9036	8.31312	58.0464	-23.2899	-15.3248	37.9188	-13.8712	-35.6644	35.3707	-17.5068	-62.8867	106.65	3.12068	-49.3399	102.726	16.5068	-79.1066	88.7981	1.71891	-102.82	130.521	-3.03924	-55.4584	132.938	2.44779	-86.4337	115.255	-20.7669	-112.934	142.429	-24.4796	-53.4403	147.141	-25.4654	-81.4635	126.663	-44.2988	-100.486	145.748	-52.6417	-44.8071	151.6	-60.0167	-73.7528	132.924	-74.2573	-90.452	135.719	-37.1691	-9.95588	134.915	-41.1822	18.3823	109.211	-17.5419	6.45601	
98	0.816667	70.9075	-28.4812	12.2131	55.3973	-25.3615	-11.4491	41.8354	-17.5217	-35.924	33.7651	-17.3186	-63.0008	107.269	1.16444	-48.8799	105.5	14.39	-78.7707	85.9072	1.56494	-102.949	132.547	-6.52773	-53.7221	134.347	-0.293534	-88.1026	115.655	-18.8141	-110.736	141.372	-28.0924	-49.7513	146.549	-24.9197	-79.6934	127.821	-42.6906	-99.06	148.438	-57.4414	-41.9335	149.628	-56.4677	-73.3505	132.35	-72.1164	-87.8082	133.152	-37.3116	-6.74629	135.058	-44.955	22.1728	108.143	-17.9781	5.38776	
99	0.825	70.9081	-28.3939	11.1698	56.1004	-26.9208	-12.6911	40.0354	-16.8778	-38.0336	32.3953	-17.5887	-63.2613	102.653	1.41659	-48.0988	101.178	15.3162	-75.9947	85.88	-1.21269	-102.383	128.431	-5.47634	-53.0116	132.832	-0.52946	-84.2796	113.102	-20.4302	-110.614	140.061	-27.0463	-50.7069	145.629	-27.3138	-81.1616	126.94	-45.8922	-98.85	148.752	-56.1554	-43.666	151.666	-61.3865	-71.5061	131.843	-72.0593	-89.4845	133.714	-39.3382	-9.47441	136.134	-46.4726	21.4561	107.337	-21.0868	7.1577	
100	0.833333	71.0325	-30.4595	11.4761	52.7621	-25.233	-11.8639	37.2003	-18.6489	-34.5605	35.2208	-19.6558	-62.0286	104.16	-0.287315	-48.9967	99.8031	15.0042	-79.3321	87.201	0.803873	-101.258	127.986	-8.84126	-53.1055	132.44	-2.18886	-85.997	113.719	-20.9377	-110.309	138.55	-28.4401	-48.665	143.195	-24.2601	-80.9076	121.906	-45.3346	-100.043	143.633	-55.9508	-42.1746	149.471	-56.224	-69.1873	132.326	-73.2592	-88.3351	129.809	-38.4536	-7.51271	134.572	-47.0637	20.1901	108.128	-20.4168	7.59404	
101	0.841667	67.9248	-26.8403	8.31911	54.1679	-25.0822	-15.675	35.4447	-14.233	-38.4755	28.4336	-16.3587	-59.0285	99.7771	4.8253	-49.5966	97.0964	16.769	-78.0701	82.8498	-0.671052	-103.21	127.213	-6.06867	-54.2663	129.273	1.18496	-84.1157	109.638	-21.3067	-112.535	134.71	-24.1103	-49.8997	141.076	-22.6224	-80.7364	121.632	-40.491	-101.159	139.39	-54.2961	-42.8375	146.981	-56.4254	-71.1571	131.452	-70.4139	-90.9248	129.273	-39.7731	-5.68231	129.087	-45.6059	21.2177	107.497	-20.7262	6.61332	
102	0.85	68.5679	-28.7044	8.96714	50.0151	-23.8289	-13.5946	32.2931	-14.0298	-38.0364	27.5655	-18.149	-58.4386	99.2301	2.59676	-48.6334	97.8002	16.702	-78.1719	81.7494	1.07973	-102.575	124.654	-6.4704	-52.7414	128.737	1.13024	-86.9093	109.655	-23.0192	-113.293	133.998	-26.5719	-49.4884	139.782	-20.619	-80.1213	122.088	-38.0922	-102.401	140.524	-51.931	-45.4898	146.623	-56.0791	-70.8655	131.896	-70.3195	-90.187	128.075	-35.392	-10.4729	129.707	-44.8622	22.0074	106.052	-20.3961	7.03134	
103	0.858333	64.5854	-28.0475	11.5745	49.7563	-25.4339	-13.1526	34.3817	-17.5156	-36.588	27.0042	-17.3733	-63.3595	100.622	2.36891	-51.1319	93.2243	16.1484	-80.5591	76.0217	0.906804	-102.341	124.716	-9.09146	-53.5505	124.579	1.45653	-86.7851	106.211	-18.2952	-112.082	132.896	-24.5801	-51.1489	138.667	-22.6046	-79.529	121.492	-40.2003	-101.676	141.253	-54.3313	-45.6678	145.37	-55.869	-70.3507	130.205	-69.927	-91.2289	128.957	-38.1757	-8.74718	127.616	-44.2076	21.7505	101.551	-18.2693	8.59188	
